<?xml version="1.0" encoding="UTF-8"?>
<svg xmlns="http://www.w3.org/2000/svg" viewBox="10 25 155 155">
  <g fill="#1c9393">
    <path d="m117.74,90c-3.68-1.61-7.14-3.63-10.34-5.98-4.4-3.23-8.32-7.12-11.57-11.5-2.35-3.15-4.37-6.57-5.99-10.21-3.07-6.81-4.77-14.37-4.77-22.32h-10.03c0,5.49.69,10.83,1.98,15.92,1.5,5.9,3.82,11.47,6.82,16.6,1.77,3.03,3.77,5.9,5.99,8.59,2.68,3.24,5.68,6.22,8.93,8.89,2.71,2.22,5.59,4.22,8.64,5.98,5.21,3.02,10.87,5.32,16.85,6.79,4.67,1.15,9.53,1.79,14.54,1.84v-10.02c-7.48-.12-14.59-1.74-21.06-4.59Z"/>
    <path d="m109.39,40h-10.03c0,5.65,1.17,11.04,3.29,15.92,4.14,9.61,11.93,17.29,21.61,21.31,4.5,1.87,9.4,2.95,14.54,3.05v-10.02c-16.29-.46-29.4-13.85-29.4-30.26Z"/>
  </g>
  <g fill="#30b4b7">
    <path d="m94.61,40c0,7.94-1.7,15.5-4.77,22.32-1.64,3.63-3.65,7.05-6,10.21-3.26,4.38-7.17,8.27-11.58,11.5-3.2,2.35-6.66,4.37-10.34,5.98-6.71,2.95-14.12,4.6-21.92,4.6v10.03c5.31,0,10.47-.64,15.4-1.86,5.99-1.47,11.66-3.77,16.85-6.79,3.05-1.76,5.94-3.76,8.65-5.98,3.26-2.67,6.24-5.65,8.92-8.89,2.22-2.69,4.23-5.56,6-8.59,3-5.13,5.31-10.7,6.82-16.6,1.3-5.09,1.98-10.43,1.98-15.92h-10.03Z"/>
    <path d="m70.28,40c0,16.69-13.58,30.27-30.28,30.27v10.03c5.45,0,10.65-1.09,15.4-3.06,9.68-4.02,17.47-11.7,21.61-21.31,2.11-4.88,3.29-10.27,3.29-15.92h-10.03Z"/>
  </g>
  <g fill="#30b4b7">
    <path d="m124.26,77.23c-5.99,1.47-11.65,3.77-16.85,6.79-3.05,1.76-5.93,3.76-8.64,5.98-3.26,2.66-6.25,5.64-8.93,8.89-2.22,2.68-4.23,5.56-5.99,8.59-3,5.12-5.31,10.7-6.82,16.6-1.3,5.09-1.98,10.43-1.98,15.92h10.03c0-7.95,1.7-15.5,4.77-22.32,1.63-3.63,3.64-7.05,5.99-10.21,3.26-4.38,7.17-8.27,11.57-11.5,3.2-2.35,6.66-4.37,10.34-5.98,6.46-2.85,13.58-4.47,21.06-4.59v-10.02c-5.01.05-9.87.69-14.54,1.84Z"/>
    <path d="m124.26,102.77c-9.68,4.02-17.46,11.7-21.61,21.31-2.11,4.88-3.29,10.27-3.29,15.92h10.03c0-16.41,13.11-29.8,29.4-30.26v-10.02c-5.14.1-10.04,1.18-14.54,3.05Z"/>
  </g>
  <g fill="#4ad3d3">
    <path d="m102.65,124.08c-1.5-5.9-3.82-11.48-6.82-16.6-1.77-3.03-3.78-5.91-6-8.59-2.68-3.25-5.67-6.22-8.92-8.89-2.71-2.22-5.6-4.22-8.65-5.98-5.2-3.02-10.87-5.32-16.85-6.79-4.94-1.22-10.1-1.86-15.4-1.86v10.03c7.8,0,15.21,1.64,21.92,4.6,3.68,1.61,7.14,3.63,10.34,5.98,4.41,3.23,8.32,7.12,11.58,11.5,2.35,3.15,4.37,6.57,6,10.21,3.06,6.81,4.77,14.37,4.77,22.32h10.03c0-5.49-.69-10.83-1.98-15.92Z"/>
    <path d="m77.02,124.08c-4.14-9.61-11.93-17.3-21.61-21.31-4.75-1.97-9.95-3.06-15.4-3.06v10.03c16.69,0,30.28,13.58,30.28,30.27h10.03c0-5.65-1.17-11.04-3.29-15.92Z"/>
  </g>
</svg>
